<svg width="299" height="299" viewBox="0 0 299 299" fill="none" xmlns="http://www.w3.org/2000/svg">
<path d="M24.1533 257.176L55.4945 257.032L86.8297 256.979L149.5 256.877L212.17 256.979L243.506 257.032L274.847 257.176L243.506 257.325L212.17 257.379L149.5 257.475L86.8297 257.373L55.4945 257.325L24.1533 257.176Z" fill="#263238"/>
<path d="M130.675 278.524C181.364 278.524 222.456 275.673 222.456 272.156C222.456 268.638 181.364 265.787 130.675 265.787C79.9858 265.787 38.894 268.638 38.894 272.156C38.894 275.673 79.9858 278.524 130.675 278.524Z" fill="#EBEBEB"/>
<path d="M141.092 146.552C141.092 146.552 125.544 144.375 129.198 125.622C129.198 125.634 146.546 129.527 141.092 146.552Z" fill="black"/>
<path opacity="0.1" d="M141.092 146.552C141.092 146.552 125.544 144.375 129.198 125.622C129.198 125.634 146.546 129.527 141.092 146.552Z" fill="black"/>
<path d="M140.309 142.635C140.006 141.686 139.652 140.754 139.25 139.842C139.25 139.723 139.22 139.603 139.214 139.489C139.214 139.232 139.167 138.975 139.149 138.718C139.107 138.156 139.071 137.594 139.035 137.038C138.969 135.919 138.897 134.795 138.879 133.677C138.882 133.67 138.883 133.662 138.882 133.654C138.881 133.647 138.878 133.639 138.874 133.633C138.87 133.627 138.864 133.621 138.857 133.618C138.85 133.614 138.842 133.612 138.835 133.612C138.827 133.612 138.819 133.614 138.812 133.618C138.806 133.621 138.8 133.627 138.795 133.633C138.791 133.639 138.788 133.647 138.787 133.654C138.786 133.662 138.787 133.67 138.79 133.677C138.79 134.801 138.76 135.919 138.79 137.044C138.79 137.6 138.844 138.162 138.885 138.724C138.885 138.844 138.885 138.969 138.885 139.095C138.015 137.228 136.972 135.446 135.77 133.773C135.241 133.027 134.674 132.308 134.072 131.62C133.474 130.908 132.804 130.232 132.176 129.533C132.134 129.485 132.068 129.533 132.11 129.605C133.226 130.836 134.226 132.168 135.1 133.581C135.573 134.293 136.021 135.028 136.446 135.77L136.344 135.746C136.159 135.668 135.973 135.591 135.788 135.525L134.52 135.04C133.689 134.735 132.852 134.442 132.02 134.113C131.973 134.113 131.937 134.179 132.02 134.203C132.846 134.532 133.659 134.879 134.478 135.232L135.674 135.746C135.872 135.836 136.075 135.913 136.272 135.997C136.403 136.062 136.542 136.11 136.685 136.141C136.996 136.703 137.283 137.271 137.594 137.845C138.315 139.296 138.948 140.79 139.489 142.318C139.531 142.426 139.567 142.533 139.603 142.641C139.194 142.409 138.769 142.21 138.329 142.043L136.727 141.313C135.638 140.811 134.556 140.303 133.509 139.717C133.498 139.71 133.485 139.709 133.473 139.712C133.461 139.715 133.45 139.724 133.444 139.735C133.437 139.746 133.436 139.759 133.439 139.771C133.442 139.784 133.451 139.794 133.462 139.8C134.532 140.398 135.579 140.996 136.643 141.594C137.181 141.881 137.719 142.163 138.264 142.432C138.715 142.706 139.208 142.908 139.723 143.03C140.24 144.452 140.581 145.932 140.739 147.437C140.913 149.554 140.895 151.695 140.943 153.818C140.943 153.853 140.996 153.853 141.002 153.818C141.152 151.892 141.242 149.943 141.248 148.011C141.232 146.18 140.915 144.363 140.309 142.635Z" fill="#263238"/>
<path d="M137.917 131.614C137.768 132.709 137.718 133.816 137.767 134.921H137.809C137.875 133.82 137.887 132.732 138.012 131.638C138.018 131.56 137.929 131.56 137.917 131.614Z" fill="#263238"/>
<path d="M133.48 132.553C132.786 132.286 132.117 131.958 131.482 131.572C131.434 131.536 131.387 131.62 131.434 131.656C132.057 132.074 132.738 132.398 133.456 132.618C133.491 132.63 133.515 132.571 133.48 132.553Z" fill="#263238"/>
<path d="M141.588 176.308C141.588 174.592 141.547 172.882 141.529 171.166C141.493 165.467 141.445 159.768 141.343 154.069C141.264 149.544 141.158 145.021 141.026 140.5C141.026 140.488 141.022 140.476 141.016 140.466C141.01 140.455 141.001 140.446 140.99 140.44C140.99 139.202 140.99 137.971 140.99 136.733C140.99 136.703 140.955 136.685 140.919 136.685C140.883 136.685 140.847 136.685 140.847 136.739C140.847 137.971 140.847 139.206 140.847 140.446C140.847 140.446 140.811 140.446 140.811 140.5C140.584 148.555 140.381 156.604 140.333 164.659C140.333 166.298 140.333 167.936 140.333 169.569C140.281 174.819 140.261 180.07 140.273 185.32C140.273 186.157 140.273 186.995 140.273 187.832C140.273 192.616 140.321 197.436 140.321 202.244C140.321 202.501 140.608 202.626 140.919 202.638C141.23 202.65 141.642 202.513 141.642 202.22C141.642 196.921 141.678 191.623 141.678 186.331C141.606 182.988 141.618 179.651 141.588 176.308Z" fill="#263238"/>
<path d="M135.106 171.1C135.106 171.1 127.637 165.562 120.551 169.306C113.464 173.049 112.346 187.455 112.346 187.455C112.346 187.455 122.757 188.944 129.311 182.707C135.626 176.691 135.106 171.1 135.106 171.1Z" fill="black"/>
<path d="M137.139 171.441C135.767 170.897 134.282 170.701 132.816 170.873C132.513 170.822 132.208 170.792 131.901 170.783L130.848 170.705C130.119 170.651 129.395 170.609 128.672 170.55C127.195 170.442 125.718 170.352 124.246 170.203C124.193 170.203 124.187 170.292 124.246 170.298C125.706 170.484 127.153 170.693 128.612 170.837C129.365 170.914 130.113 170.992 130.866 171.046L131.416 171.1C131.189 171.148 130.968 171.201 130.753 171.261C129.58 171.603 128.446 172.064 127.368 172.637C126.77 172.744 126.172 172.906 125.616 173.043C124.689 173.265 123.774 173.498 122.853 173.743C121.059 174.215 119.265 174.754 117.471 175.274C117.464 175.271 117.456 175.27 117.448 175.271C117.441 175.272 117.434 175.275 117.427 175.279C117.421 175.284 117.416 175.29 117.412 175.296C117.409 175.303 117.407 175.311 117.407 175.319C117.407 175.326 117.409 175.334 117.412 175.341C117.416 175.348 117.421 175.354 117.427 175.358C117.434 175.362 117.441 175.365 117.448 175.366C117.456 175.367 117.464 175.366 117.471 175.363C119.265 174.927 121.059 174.52 122.883 174.09C123.756 173.88 124.635 173.677 125.508 173.462L126.196 173.3C124.189 174.544 122.396 176.103 120.886 177.917C119.429 179.703 118.19 181.656 117.196 183.735C117.196 183.789 117.244 183.843 117.274 183.789C118.5 181.649 120.002 179.679 121.741 177.929C121.711 178.031 121.675 178.126 121.645 178.228C121.502 178.664 121.364 179.107 121.227 179.544C120.951 180.429 120.67 181.302 120.407 182.187C120.407 182.246 120.479 182.264 120.503 182.187C120.814 181.338 121.101 180.476 121.418 179.621C121.561 179.197 121.711 178.778 121.86 178.359C121.938 178.138 122.01 177.923 122.082 177.702L122.153 177.504C122.987 176.695 123.872 175.94 124.803 175.244C126.034 174.339 127.364 173.577 128.767 172.971L128.696 173.354C128.618 173.695 128.546 174.036 128.474 174.377C128.325 175.082 128.187 175.794 128.05 176.5C127.769 177.947 127.595 179.412 127.326 180.853C127.326 180.913 127.404 180.937 127.416 180.853C127.751 179.4 128.181 177.971 128.51 176.512C128.672 175.782 128.833 175.059 128.983 174.329C129.054 173.982 129.126 173.641 129.192 173.3C129.234 173.109 129.276 172.924 129.3 172.732C129.431 172.678 129.569 172.613 129.706 172.565C131.662 171.835 133.826 171.309 135.919 171.71C136.905 171.893 137.83 172.316 138.614 172.942C139.397 173.568 140.014 174.377 140.41 175.298C140.482 175.459 140.739 175.358 140.697 175.19C140.279 173.462 138.784 172.128 137.139 171.441Z" fill="#263238"/>
<path d="M125.706 177.606L125.078 180.447C124.842 181.355 124.668 182.278 124.557 183.209C124.557 183.245 124.605 183.245 124.617 183.209C124.891 182.298 125.103 181.369 125.251 180.429C125.436 179.49 125.616 178.557 125.801 177.624C125.802 177.618 125.802 177.611 125.801 177.605C125.8 177.599 125.797 177.593 125.794 177.587C125.79 177.582 125.785 177.578 125.78 177.574C125.775 177.571 125.769 177.568 125.762 177.567C125.756 177.566 125.75 177.566 125.743 177.567C125.737 177.569 125.731 177.571 125.726 177.575C125.721 177.578 125.716 177.583 125.713 177.588C125.709 177.594 125.707 177.6 125.706 177.606Z" fill="#263238"/>
<path d="M118.482 179.998C117.531 180.482 116.61 181.033 115.617 181.427C115.61 181.429 115.604 181.432 115.599 181.437C115.593 181.442 115.589 181.447 115.586 181.454C115.583 181.46 115.581 181.467 115.582 181.474C115.582 181.482 115.583 181.489 115.587 181.495C115.59 181.501 115.594 181.507 115.6 181.511C115.606 181.516 115.612 181.519 115.619 181.52C115.626 181.522 115.633 181.522 115.64 181.52C115.647 181.519 115.654 181.515 115.659 181.511C116.634 181.07 117.584 180.577 118.506 180.034C118.506 180.034 118.506 179.998 118.482 179.998Z" fill="#263238"/>
<path d="M136.786 160.934C136.786 160.934 127.655 161.532 123.409 155.498C119.163 149.464 120.114 140.883 120.114 140.883C120.114 140.883 129.682 142.049 133.515 146.372C137.349 150.696 136.786 160.934 136.786 160.934Z" fill="black"/>
<path d="M141.068 169.94C140.751 168.965 140.362 168.002 139.992 167.039C139.621 166.077 139.256 165.209 138.855 164.306C138.042 162.465 137.13 160.668 136.123 158.924C135.477 157.812 134.789 156.736 134.077 155.677C134.077 155.516 134.03 155.354 134.006 155.187C133.964 154.906 133.922 154.625 133.874 154.344C133.784 153.746 133.683 153.19 133.587 152.61C133.378 151.348 133.121 150.098 132.917 148.836C132.917 148.776 132.816 148.776 132.822 148.836C133.007 150.086 133.133 151.336 133.306 152.586C133.396 153.184 133.473 153.812 133.569 154.422C133.569 154.643 133.635 154.864 133.671 155.085C132.277 153.048 130.77 151.092 129.156 149.225L128.486 148.477C128.462 148.406 128.434 148.336 128.402 148.268L128.205 147.748L127.81 146.659C127.553 145.942 127.326 145.224 127.129 144.489C127.129 144.429 127.027 144.489 127.039 144.519C127.224 145.266 127.416 146.014 127.637 146.755C127.745 147.108 127.858 147.461 127.984 147.814C127.984 147.873 128.032 147.933 128.05 147.993C126.883 146.719 125.658 145.493 124.462 144.279C124.42 144.238 124.354 144.309 124.396 144.351C126.758 146.818 128.921 149.467 130.866 152.275C130.645 152.204 130.419 152.146 130.19 152.101C129.485 151.964 128.779 151.868 128.068 151.778C126.578 151.587 125.078 151.402 123.618 151.18C123.559 151.18 123.535 151.264 123.618 151.276C125.03 151.551 126.435 151.874 127.84 152.197C128.498 152.346 129.168 152.478 129.832 152.61C130.375 152.727 130.91 152.879 131.434 153.064L131.883 153.698C132.553 154.673 133.192 155.665 133.826 156.688L132.893 156.509C132.188 156.371 131.482 156.239 130.77 156.126C129.377 155.893 127.984 155.653 126.584 155.342C126.575 155.346 126.567 155.352 126.562 155.36C126.556 155.368 126.553 155.378 126.553 155.387C126.553 155.397 126.556 155.407 126.562 155.415C126.567 155.423 126.575 155.429 126.584 155.432C127.984 155.761 129.365 156.144 130.77 156.509C131.434 156.688 132.11 156.855 132.786 156.999L133.802 157.22C133.937 157.258 134.075 157.282 134.215 157.292C135.543 159.451 136.798 161.669 137.958 163.924C138.469 164.916 138.959 165.913 139.43 166.914C139.92 167.948 140.338 169.007 140.787 170.059C140.811 170.257 141.128 170.173 141.068 169.94Z" fill="#263238"/>
<path d="M131.727 148.962C131.554 148.095 131.368 147.222 131.177 146.355C131.177 146.295 131.075 146.325 131.087 146.355C131.255 147.21 131.422 148.065 131.578 148.926C131.707 149.787 131.88 150.642 132.098 151.485C132.036 150.636 131.912 149.793 131.727 148.962Z" fill="#263238"/>
<path d="M126.399 148.711C125.972 148.503 125.535 148.318 125.089 148.155L124.384 147.885L124.031 147.742C123.896 147.705 123.767 147.648 123.648 147.574C123.577 147.521 123.535 147.646 123.6 147.658C123.738 147.692 123.871 147.744 123.995 147.814L124.336 147.969L125.006 148.268C125.444 148.47 125.893 148.648 126.351 148.8C126.363 148.807 126.377 148.808 126.39 148.804C126.403 148.8 126.414 148.791 126.42 148.779C126.426 148.768 126.428 148.754 126.424 148.741C126.42 148.728 126.411 148.717 126.399 148.711Z" fill="#263238"/>
<path d="M146.127 153.758C146.127 153.758 151.653 143.436 160.061 141.84C168.468 140.243 173.605 148.902 173.605 148.902C173.605 148.902 167.476 156.73 159.762 158.099C152.047 159.469 146.127 153.758 146.127 153.758Z" fill="black"/>
<path d="M165.694 146.462C163.509 146.169 161.293 146.197 159.116 146.546C159.241 146.474 159.367 146.402 159.493 146.343L161.358 145.38C162.65 144.71 163.954 143.992 165.305 143.454C165.312 143.452 165.318 143.449 165.324 143.445C165.329 143.44 165.334 143.434 165.337 143.428C165.34 143.421 165.341 143.414 165.341 143.407C165.341 143.4 165.339 143.393 165.336 143.387C165.333 143.38 165.328 143.375 165.322 143.37C165.317 143.366 165.31 143.363 165.303 143.361C165.296 143.36 165.289 143.36 165.282 143.361C165.275 143.363 165.269 143.366 165.263 143.37C163.948 143.968 162.59 144.495 161.269 145.099C160.611 145.404 159.959 145.697 159.319 146.061C158.907 146.283 158.446 146.486 158.039 146.749C156.192 147.13 154.397 147.733 152.693 148.543C153.046 148.16 153.399 147.784 153.746 147.401C154.529 146.54 155.301 145.643 156.138 144.86C156.18 144.818 156.138 144.752 156.066 144.794C155.187 145.595 154.272 146.331 153.405 147.186C152.992 147.592 152.598 148.005 152.209 148.436C152.018 148.651 151.826 148.872 151.641 149.099C148.754 150.644 146.246 152.811 144.297 155.443C142.349 158.075 141.009 161.106 140.375 164.318C140.375 164.378 140.446 164.408 140.464 164.348C141.646 160.415 143.766 156.827 146.642 153.895C149.734 150.741 153.627 148.488 157.902 147.377C160.439 146.731 163.064 146.492 165.676 146.671C165.704 146.674 165.731 146.665 165.753 146.647C165.774 146.629 165.787 146.604 165.79 146.576C165.792 146.548 165.783 146.52 165.765 146.499C165.747 146.478 165.722 146.465 165.694 146.462Z" fill="#263238"/>
<path opacity="0.1" d="M173.611 148.902C173.611 148.902 167.476 156.73 159.762 158.099C153.877 159.14 149.039 156.072 147.072 154.559L146.647 153.865C146.647 153.865 150.63 150.511 158.153 148.573C165.676 146.636 173.611 148.902 173.611 148.902Z" fill="black"/>
<path d="M160.808 142.784C160.166 143.164 159.543 143.575 158.942 144.016C158.359 144.461 157.816 144.958 157.322 145.499C157.317 145.509 157.315 145.521 157.317 145.532C157.319 145.543 157.324 145.553 157.332 145.561C157.34 145.569 157.35 145.574 157.361 145.576C157.372 145.577 157.383 145.576 157.393 145.571C157.95 145.087 158.512 144.602 159.092 144.142C159.661 143.679 160.261 143.253 160.886 142.868C160.897 142.858 160.903 142.844 160.904 142.828C160.905 142.813 160.899 142.799 160.889 142.787C160.878 142.776 160.864 142.77 160.849 142.769C160.834 142.769 160.819 142.774 160.808 142.784Z" fill="#263238"/>
<path d="M165.425 144.531C165.114 144.662 164.791 144.776 164.48 144.901L163.547 145.29C163.481 145.29 163.511 145.428 163.577 145.404L164.516 145.021C164.833 144.895 165.114 144.752 165.449 144.62C165.508 144.602 165.478 144.507 165.425 144.531Z" fill="#263238"/>
<path d="M145.027 166.746C145.027 166.746 146.51 177.008 154.2 180.56C161.89 184.112 171.285 180.56 171.285 180.56C171.285 180.56 167.589 158.416 145.027 166.746Z" fill="black"/>
<path d="M165.981 173.904C165.269 173.821 164.564 173.701 163.858 173.575L162.823 173.378C162.65 173.342 162.471 173.3 162.285 173.27L161.687 172.672C160.228 171.393 158.652 170.252 156.981 169.264C156.07 168.724 155.127 168.239 154.158 167.811H154.284L156.82 167.924C158.506 168.002 160.198 168.038 161.885 168.146C161.944 168.146 161.944 168.056 161.885 168.05C160.186 167.936 158.5 167.751 156.808 167.607L154.344 167.44L153.076 167.332L152.747 167.296C152.311 167.129 151.868 166.98 151.42 166.836C149.321 166.118 147.066 165.994 144.901 166.477C142.964 166.974 141.032 168.271 140.53 170.286C140.53 170.358 140.62 170.406 140.65 170.334C141.373 168.624 143.269 167.769 144.979 167.416C146.129 167.195 147.308 167.171 148.465 167.344C148.542 167.872 148.672 168.391 148.854 168.893C149.063 169.611 149.273 170.334 149.494 171.052C149.931 172.493 150.409 173.916 150.834 175.358C150.839 175.368 150.847 175.376 150.858 175.38C150.869 175.384 150.88 175.385 150.891 175.381C150.902 175.377 150.911 175.37 150.917 175.36C150.923 175.35 150.925 175.339 150.923 175.328C150.57 173.892 150.265 172.439 149.919 171.004C149.751 170.292 149.572 169.593 149.398 168.887C149.297 168.394 149.168 167.906 149.01 167.428C149.684 167.549 150.35 167.706 151.007 167.9C152.196 168.25 153.36 168.678 154.493 169.18C154.607 169.91 154.774 170.633 154.942 171.351C155.151 172.254 155.384 173.145 155.671 174.036C155.675 174.047 155.684 174.056 155.694 174.061C155.705 174.066 155.717 174.067 155.728 174.063C155.739 174.059 155.748 174.051 155.753 174.04C155.758 174.029 155.759 174.017 155.755 174.006C155.752 173.95 155.752 173.894 155.755 173.839C155.582 173.001 155.402 172.164 155.223 171.327C155.079 170.657 154.948 169.976 154.804 169.306C155.763 169.732 156.699 170.207 157.609 170.729C157.609 170.932 157.681 171.148 157.711 171.327C157.764 171.68 157.83 172.027 157.89 172.379C158.039 173.169 158.195 173.952 158.386 174.736C158.731 176.245 159.173 177.732 159.708 179.185C159.701 179.193 159.697 179.204 159.697 179.215C159.697 179.225 159.701 179.236 159.708 179.245L159.75 179.298C159.757 179.305 159.767 179.309 159.777 179.31C159.787 179.311 159.798 179.308 159.806 179.303C159.815 179.298 159.822 179.29 159.825 179.28C159.829 179.271 159.83 179.26 159.827 179.25C159.475 177.732 159.068 176.225 158.733 174.706C158.566 173.946 158.398 173.187 158.249 172.421C158.171 172.039 158.099 171.656 158.028 171.273C158.028 171.166 158.01 171.052 157.974 170.932C159.006 171.543 160.004 172.21 160.964 172.93C162.622 174.177 164.157 175.578 165.55 177.116C165.604 177.175 165.712 177.116 165.664 177.02C165.066 176.249 164.468 175.495 163.828 174.783C163.439 174.371 163.039 173.97 162.632 173.587H162.764C163.122 173.647 163.481 173.701 163.846 173.749C164.558 173.845 165.275 173.916 165.987 173.994C166.017 174.018 166.041 173.91 165.981 173.904Z" fill="#263238"/>
<path d="M160.569 177.373C160.569 177.283 160.569 177.199 160.527 177.11C160.485 177.02 160.449 176.888 160.431 176.775C160.27 176.093 160.138 175.405 160.013 174.712C160.013 174.664 159.929 174.676 159.929 174.712C159.983 175.629 160.185 176.532 160.527 177.385C160.527 177.415 160.587 177.385 160.581 177.385L160.569 177.373Z" fill="#263238"/>
<path d="M154.128 177.211C154.127 177.2 154.121 177.189 154.112 177.181C154.104 177.174 154.092 177.169 154.081 177.169C153.865 176.26 153.656 175.375 153.483 174.443C153.381 173.958 153.285 173.48 153.19 173.001L153.046 172.224C153.026 171.994 152.972 171.768 152.885 171.554C152.88 171.547 152.873 171.541 152.865 171.537C152.857 171.532 152.849 171.53 152.84 171.53C152.831 171.53 152.822 171.532 152.814 171.537C152.806 171.541 152.8 171.547 152.795 171.554C152.787 172.018 152.852 172.48 152.986 172.924C153.082 173.426 153.178 173.922 153.291 174.419C153.512 175.429 153.764 176.44 154.051 177.409C154.051 177.462 154.158 177.451 154.152 177.409C154.146 177.367 154.134 177.283 154.128 177.211Z" fill="#263238"/>
<path d="M165.275 170.956C163.87 170.765 162.465 170.562 161.059 170.388C161 170.388 160.976 170.472 161.059 170.478C162.465 170.687 163.87 170.861 165.281 171.046C165.311 171.028 165.335 170.962 165.275 170.956Z" fill="#263238"/>
<path d="M141.08 142.737C141.08 142.737 136.374 122.07 158.578 113.71C158.578 113.71 164.731 140.913 141.08 142.737Z" fill="black"/>
<path d="M145.876 131.016L146.115 130.872L147.371 130.173L149.942 128.731C151.641 127.781 153.309 126.794 155.019 125.867C155.073 125.867 155.019 125.759 154.966 125.789C153.261 126.716 151.521 127.583 149.799 128.498L147.257 129.844L146.217 130.388C146.958 128.989 147.748 127.607 148.609 126.28C149.769 124.486 151.043 122.823 152.364 121.179C152.374 121.164 152.379 121.146 152.377 121.128C152.375 121.11 152.367 121.094 152.354 121.081C152.342 121.068 152.325 121.061 152.307 121.059C152.29 121.057 152.272 121.061 152.257 121.071C150.302 122.966 148.574 125.081 147.108 127.374C147.108 127.296 147.108 127.224 147.108 127.159C147.108 126.644 147.144 126.13 147.15 125.616C147.15 124.605 147.12 123.595 147.15 122.59C147.15 122.577 147.145 122.565 147.136 122.556C147.127 122.547 147.115 122.542 147.102 122.542C147.089 122.542 147.077 122.547 147.068 122.556C147.059 122.565 147.054 122.577 147.054 122.59C147.012 123.583 146.893 124.569 146.839 125.58C146.839 126.076 146.785 126.573 146.773 127.069C146.773 127.338 146.737 127.667 146.773 127.936C146.313 128.66 145.876 129.401 145.463 130.149C144.717 131.502 144.054 132.9 143.478 134.335C143.478 133.82 143.424 133.306 143.394 132.792C143.329 131.662 143.191 130.531 143.143 129.401C143.143 129.341 143.048 129.341 143.048 129.401C143.048 130.537 143.018 131.668 143.048 132.798C143.048 133.366 143.083 133.928 143.119 134.496L143.155 135.094C142.45 136.941 141.89 138.841 141.481 140.775C141.098 142.841 140.823 144.924 140.656 147.018C140.892 145.131 141.292 143.269 141.852 141.451C142.127 140.476 142.414 139.507 142.725 138.545C143.651 138.108 144.519 137.564 145.428 137.068L148.214 135.549C150.062 134.532 151.916 133.498 153.823 132.601C153.883 132.571 153.823 132.493 153.776 132.517C151.838 133.396 149.889 134.227 147.987 135.184C147.042 135.656 146.109 136.165 145.188 136.685C144.417 137.121 143.628 137.558 142.892 138.054C143.107 137.414 143.329 136.769 143.574 136.141C144.253 134.394 145.022 132.684 145.876 131.016Z" fill="#263238"/>
<path d="M144.004 126.292C144.004 126.232 143.903 126.232 143.909 126.292C143.986 127.488 144.028 128.654 144.154 129.826C144.154 129.892 144.262 129.892 144.256 129.826C144.22 128.642 144.118 127.47 144.004 126.292Z" fill="#263238"/>
<path d="M154.649 130.238C153.261 130.795 151.856 131.327 150.463 131.907C150.427 131.907 150.463 131.985 150.463 131.973C151.868 131.446 153.249 130.872 154.649 130.328C154.732 130.304 154.709 130.214 154.649 130.238Z" fill="#263238"/>
<path d="M156.76 120.706C155.402 121.33 154.083 122.037 152.813 122.823C152.747 122.865 152.813 122.967 152.873 122.925C154.158 122.171 155.474 121.448 156.807 120.79C156.867 120.76 156.813 120.682 156.76 120.706Z" fill="#263238"/>
<path d="M156.425 187.425H124.402V221.176H156.425V187.425Z" fill="#37474F"/>
<path d="M123.84 199.367H122.201V257.182H123.84V199.367Z" fill="#263238"/>
<path d="M158.458 199.367H156.819V257.182H158.458V199.367Z" fill="#263238"/>
<path d="M142.019 199.367H140.38V257.182H142.019V199.367Z" fill="#263238"/>
<path d="M157.639 219.012H123.021V223.682H157.639V219.012Z" fill="#263238"/>
<path d="M207.028 212.051H156.945V214.419H207.028V212.051Z" fill="black"/>
<path opacity="0.3" d="M207.028 212.051H156.945V214.419H207.028V212.051Z" fill="black"/>
<path d="M146.026 268.753H156.497L187.898 40.1437L184.244 40.5025L146.026 268.753Z" fill="black"/>
<path opacity="0.3" d="M146.026 268.753H156.497L187.898 40.1437L184.244 40.5025L146.026 268.753Z" fill="black"/>
<path d="M180.548 172.977H189.094L199.361 23.6389L196.305 23.9678L180.548 172.977Z" fill="black"/>
<path opacity="0.3" d="M180.548 172.977H189.094L199.361 23.6389L196.305 23.9678L180.548 172.977Z" fill="black"/>
<path d="M203.834 268.753H214.066L208.361 37.8773L204.773 38.2361L203.834 268.753Z" fill="black"/>
<g opacity="0.3">
<path d="M203.834 268.753H214.066L208.361 37.8773L204.773 38.2361L203.834 268.753Z" fill="black"/>
</g>
<path opacity="0.3" d="M170.603 166.047L170.113 169.635H162.62L163.224 166.047H170.603Z" fill="black"/>
<path opacity="0.3" d="M189.572 166.047L189.339 169.635H180.901L181.284 166.047H189.572Z" fill="black"/>
<path opacity="0.3" d="M211.62 169.635H204.241L204.253 166.047H211.531L211.62 169.635Z" fill="black"/>
<path d="M221.535 89.9332V107.999L250.359 251.196H258.611L221.535 89.9332Z" fill="black"/>
<g opacity="0.3">
<path d="M221.535 89.9332V107.999L250.359 251.196H258.611L221.535 89.9332Z" fill="black"/>
</g>
<path opacity="0.3" d="M234.267 145.284L232.532 162.626L221.535 107.999V89.9332L234.267 145.284Z" fill="black"/>
<path d="M227.491 161.759H148.029L159.995 56.6067H230.2L227.491 161.759Z" fill="white"/>
<path d="M227.784 162.058H147.706L159.732 56.3077H230.505V56.6187L227.784 162.058ZM148.364 161.46H227.198L229.889 56.9057H160.264L148.364 161.46Z" fill="#E9E9E9"/>
<path d="M230.565 56.2658L233.447 61.289L231.474 161.759H227.736L230.565 56.2658Z" fill="#DBDBDB"/>
<path d="M143.897 166.495H235.253L234.655 161.759H144.495L143.897 166.495Z" fill="black"/>
<path opacity="0.3" d="M143.897 166.495H235.253L234.655 161.759H144.495L143.897 166.495Z" fill="black"/>
<path d="M172.589 57.2166H219.693L219.095 52.4805H173.187L172.589 57.2166Z" fill="black"/>
<path opacity="0.3" d="M172.589 57.2166H219.693L219.095 52.4805H173.187L172.589 57.2166Z" fill="black"/>
<path d="M129.294 272.234C127.96 272.652 90.0468 271.839 88.6296 270.894C88.0914 270.541 87.888 265.01 87.8342 258.336C87.8342 256.889 87.8342 255.406 87.8342 253.887C87.8342 252.093 87.8342 250.299 87.8701 248.505C87.9718 240.587 88.211 233.615 88.211 233.615L112.89 234.075L112.603 248.965L112.496 254.347L112.286 258.796C112.286 258.796 126.638 265.602 128.116 266.804C129.593 268.006 130.627 271.827 129.294 272.234Z" fill="#EB9481"/>
<path d="M129.294 272.234C127.96 272.652 90.0468 271.839 88.6296 270.894C88.0914 270.541 87.888 265.01 87.8342 258.336C87.8342 256.889 87.8342 255.406 87.8342 253.887C87.8342 252.093 87.8342 250.299 87.8701 248.505L112.603 248.965L112.496 254.347L112.286 258.796C112.286 258.796 126.638 265.602 128.116 266.804C129.593 268.006 130.627 271.827 129.294 272.234Z" fill="white"/>
<path d="M129.407 272.293C128.54 272.562 112.388 272.323 100.637 271.857C97.9165 271.749 95.4288 271.63 93.4255 271.504C90.6568 271.325 88.809 271.139 88.51 270.942C87.8462 270.505 87.6787 262.39 87.6847 253.827L112.49 254.288L112.28 258.761C112.28 258.761 126.734 265.602 128.199 266.81C129.664 268.018 130.747 271.869 129.407 272.293Z" fill="black"/>
<path d="M128.893 270.756C122.506 270.463 96.7207 269.883 90.3819 270.075C90.3281 270.075 90.3281 270.111 90.3819 270.117C96.7088 270.547 122.5 270.918 128.893 270.864C129.025 270.858 129.031 270.762 128.893 270.756Z" fill="#263238"/>
<path d="M113.213 257.361C110.708 256.835 107.628 257.158 105.667 258.904C105.589 258.976 105.667 259.084 105.768 259.06C108.187 258.334 110.677 257.871 113.195 257.678C113.233 257.673 113.267 257.656 113.293 257.628C113.319 257.601 113.334 257.565 113.336 257.527C113.338 257.49 113.327 257.452 113.305 257.422C113.282 257.392 113.25 257.37 113.213 257.361Z" fill="#263238"/>
<path d="M115.007 258.491C112.502 257.965 109.416 258.288 107.455 260.04C107.383 260.106 107.455 260.214 107.562 260.19C109.981 259.464 112.471 259.001 114.989 258.808C115.027 258.804 115.061 258.786 115.087 258.758C115.113 258.731 115.128 258.695 115.13 258.657C115.132 258.62 115.121 258.583 115.099 258.552C115.076 258.522 115.044 258.5 115.007 258.491Z" fill="#263238"/>
<path d="M116.795 259.622C114.29 259.101 111.21 259.418 109.249 261.17C109.171 261.242 109.249 261.344 109.35 261.32C111.773 260.6 114.264 260.137 116.783 259.939C116.821 259.933 116.855 259.915 116.88 259.887C116.905 259.858 116.919 259.823 116.92 259.785C116.922 259.748 116.91 259.711 116.887 259.681C116.865 259.651 116.832 259.63 116.795 259.622Z" fill="#263238"/>
<path d="M118.589 260.758C116.084 260.232 112.998 260.555 111.043 262.307C110.965 262.373 111.043 262.48 111.144 262.456C113.563 261.731 116.053 261.268 118.571 261.075C118.609 261.07 118.643 261.052 118.669 261.025C118.695 260.997 118.71 260.961 118.712 260.924C118.714 260.886 118.703 260.849 118.681 260.819C118.658 260.788 118.626 260.767 118.589 260.758Z" fill="#263238"/>
<path d="M103.729 256.578C105.78 257.505 108.166 257.511 110.367 257.774C110.416 257.775 110.465 257.764 110.509 257.743C110.554 257.722 110.592 257.69 110.623 257.651C110.653 257.612 110.674 257.567 110.683 257.519C110.693 257.471 110.691 257.421 110.678 257.373C110.687 257.369 110.696 257.364 110.703 257.356C110.71 257.349 110.715 257.34 110.719 257.331C110.722 257.321 110.724 257.311 110.723 257.3C110.722 257.29 110.719 257.28 110.714 257.272C109.447 255.286 107.682 253.668 105.595 252.577C104.369 251.979 102.432 251.806 101.792 253.361C101.152 254.915 102.527 256.034 103.729 256.578ZM102.629 254.784C101.552 252.206 104.776 252.918 105.661 253.402C106.227 253.731 106.772 254.095 107.293 254.491C108.355 255.331 109.373 256.225 110.343 257.17C109.273 256.973 108.19 256.871 107.114 256.715C105.846 256.542 103.227 256.183 102.629 254.748V254.784Z" fill="#263238"/>
<path opacity="0.2" d="M110.032 272.156C106.845 272.078 103.616 271.97 100.662 271.857C97.9466 271.755 95.4589 271.63 93.4556 271.504C90.6929 271.325 88.8331 271.145 88.5401 270.942C87.9421 270.559 87.7567 264.286 87.7268 256.985C93.3241 260.728 104.381 268.305 110.032 272.156Z" fill="black"/>
<path d="M114.702 258.468H86.5367C86.5367 258.468 88.0795 181.326 87.7745 179.866C87.0509 176.338 71.0305 120.437 71.0305 120.437L93.2761 120.82L99.5133 120.957C99.5133 120.957 100.213 130.262 100.482 131.249C104.196 144.812 111.455 167.966 112.932 176.554C115.498 191.462 114.702 258.468 114.702 258.468Z" fill="#263238"/>
<path d="M113.787 253.761C109.398 253.648 93.8322 253.163 87.9718 253.624C87.93 253.624 87.93 253.701 87.9718 253.707C89.9811 254.036 109.392 253.941 113.787 253.881C113.795 253.881 113.803 253.879 113.81 253.876C113.818 253.873 113.824 253.869 113.83 253.863C113.835 253.858 113.84 253.851 113.843 253.844C113.846 253.837 113.847 253.829 113.847 253.821C113.847 253.813 113.846 253.805 113.843 253.798C113.84 253.791 113.835 253.784 113.83 253.779C113.824 253.773 113.818 253.769 113.81 253.766C113.803 253.763 113.795 253.761 113.787 253.761Z" fill="#37474F"/>
<path d="M89.9872 178.497C89.144 175.07 82.871 153.716 80.9514 146.97C79.0318 140.225 77.2318 133.456 75.5694 126.638C75.3601 125.777 75.1508 124.916 74.9176 124.055C74.9176 123.983 74.798 124.019 74.8099 124.055C75.4438 127.488 76.281 130.884 77.0823 134.275C77.8836 137.666 78.7507 141.05 79.6537 144.441C81.4716 151.218 83.455 157.94 85.6038 164.605C86.6802 167.93 88.4503 174.771 89.3951 178.126C90.34 181.481 88.7971 250.424 88.8928 251.315C88.901 251.363 88.9256 251.405 88.9622 251.436C88.9989 251.467 89.0453 251.484 89.0932 251.484C89.1411 251.484 89.1874 251.467 89.2241 251.436C89.2607 251.405 89.2853 251.363 89.2935 251.315C89.425 244.827 90.8184 181.882 89.9872 178.497Z" fill="#37474F"/>
<path d="M93.2881 120.85C93.2881 120.85 87.8523 180.183 87.7865 179.896C87.0868 176.482 72.0292 123.912 71.0843 120.629C71.0843 120.521 71.0425 120.467 71.0425 120.467L93.2881 120.85Z" fill="#37474F"/>
<path d="M99.3638 275.487C98.0242 275.899 60.111 275.086 58.6998 274.147C58.1616 273.794 57.9523 268.257 57.8984 261.589C57.8984 260.148 57.8984 258.659 57.8984 257.14C57.8984 255.346 57.8984 253.552 57.9343 251.758C58.036 243.834 58.8493 236.868 58.8493 236.868L82.9546 237.322L82.6676 252.212L82.5659 257.594L82.3566 262.044C82.3566 262.044 96.7086 268.849 98.1797 270.057C99.6508 271.265 100.691 275.08 99.3638 275.487Z" fill="#EB9481"/>
<path d="M99.3638 275.487C98.0242 275.899 60.111 275.086 58.6998 274.147C58.1616 273.794 57.9523 268.257 57.8984 261.589C57.8984 260.148 57.8984 258.659 57.8984 257.14C57.8984 255.346 57.8984 253.552 57.9343 251.758L82.6676 252.212L82.5659 257.594L82.3566 262.044C82.3566 262.044 96.7086 268.849 98.1797 270.057C99.6508 271.265 100.691 275.08 99.3638 275.487Z" fill="white"/>
<path d="M99.4774 275.54C98.6043 275.81 82.4583 275.57 70.7017 275.11C67.9808 275.002 65.4931 274.877 63.4898 274.757C60.727 274.578 58.8732 274.392 58.5742 274.195C57.9164 273.752 57.743 265.638 57.755 257.08L82.56 257.535L82.3447 262.008C82.3447 262.008 96.8044 268.849 98.2635 270.063C99.7226 271.277 100.811 275.122 99.4774 275.54Z" fill="black"/>
<path d="M98.9632 274.004C92.5706 273.711 66.7848 273.131 60.446 273.328C60.3982 273.328 60.3982 273.364 60.446 273.364C66.7729 273.794 92.5646 274.171 98.9572 274.111C99.0948 274.111 99.0948 274.016 98.9632 274.004Z" fill="#263238"/>
<path d="M83.2776 260.608C80.778 260.082 77.6923 260.405 75.7308 262.157C75.6531 262.223 75.7308 262.331 75.8325 262.307C78.2534 261.581 80.7455 261.118 83.2656 260.925C83.3028 260.92 83.3368 260.901 83.3618 260.873C83.3868 260.845 83.4012 260.809 83.4026 260.772C83.4041 260.734 83.3923 260.697 83.3695 260.668C83.3467 260.638 83.3142 260.617 83.2776 260.608Z" fill="#263238"/>
<path d="M85.0715 261.739C82.5659 261.218 79.4803 261.535 77.5248 263.287C77.4471 263.353 77.5248 263.461 77.6265 263.437C80.0462 262.714 82.5359 262.251 85.0536 262.056C85.091 262.051 85.1255 262.033 85.1512 262.005C85.1769 261.978 85.1921 261.942 85.1942 261.905C85.1964 261.867 85.1853 261.83 85.1629 261.799C85.1405 261.769 85.1081 261.748 85.0715 261.739Z" fill="#263238"/>
<path d="M86.8656 262.875C84.3599 262.349 81.2743 262.671 79.3128 264.424C79.2411 264.489 79.3128 264.597 79.4205 264.573C81.8393 263.847 84.3294 263.384 86.8476 263.192C86.885 263.187 86.9195 263.169 86.9452 263.142C86.9709 263.114 86.9861 263.078 86.9882 263.041C86.9904 263.003 86.9793 262.966 86.9569 262.936C86.9345 262.905 86.9022 262.884 86.8656 262.875Z" fill="#263238"/>
<path d="M88.6536 264.005C86.148 263.485 83.0683 263.802 81.1068 265.554C81.0291 265.62 81.1068 265.727 81.2085 265.703C83.628 264.979 86.1177 264.514 88.6356 264.316C88.6703 264.309 88.7015 264.29 88.7246 264.263C88.7476 264.236 88.7612 264.203 88.7633 264.167C88.7653 264.132 88.7557 264.097 88.7359 264.068C88.716 264.038 88.6871 264.016 88.6536 264.005Z" fill="#263238"/>
<path d="M73.7934 259.825C75.8505 260.752 78.2305 260.758 80.4312 261.021C80.6584 261.051 80.778 260.812 80.7421 260.62C80.7523 260.618 80.7617 260.612 80.7694 260.605C80.7771 260.598 80.783 260.589 80.7865 260.579C80.7901 260.569 80.7911 260.558 80.7896 260.548C80.7881 260.537 80.7842 260.527 80.778 260.519C79.5129 258.534 77.7474 256.917 75.6591 255.83C74.4631 255.232 72.5017 255.053 71.8558 256.608C71.21 258.163 72.5974 259.287 73.7934 259.825ZM72.699 258.031C71.6166 255.454 74.8399 256.165 75.7249 256.656C76.2946 256.979 76.8402 257.342 77.3574 257.744C78.4208 258.58 79.4388 259.473 80.4072 260.417C79.3368 260.22 78.2544 260.124 77.178 259.969C75.8923 259.759 73.291 259.43 72.699 258.007V258.031Z" fill="#263238"/>
<path d="M83.9892 261.326L56.6606 260.824C56.6606 260.824 63.729 148.615 63.3881 143.317C62.9576 136.822 63.1549 125.006 67.2692 120.377L93.8981 120.868C93.8981 120.868 93.1925 129.503 92.3254 132.23C92.3254 132.23 88.9287 134.287 87.7028 134.963L83.9892 261.326Z" fill="#263238"/>
<path d="M83.2357 256.488C79.0915 256.303 80.2875 256.297 76.1374 256.159C74.1102 256.088 60.7748 255.657 58.8732 255.926C58.8621 255.926 58.8514 255.93 58.8436 255.938C58.8357 255.946 58.8313 255.957 58.8313 255.968C58.8313 255.979 58.8357 255.99 58.8436 255.998C58.8514 256.005 58.8621 256.01 58.8732 256.01C60.7628 256.369 74.0982 256.572 76.1255 256.608C80.2756 256.662 79.1155 256.608 83.2357 256.608C83.2515 256.608 83.2668 256.601 83.278 256.59C83.2892 256.579 83.2955 256.564 83.2955 256.548C83.2955 256.532 83.2892 256.517 83.278 256.506C83.2668 256.494 83.2515 256.488 83.2357 256.488Z" fill="#37474F"/>
<path d="M93.1327 131.596C90.4938 132.812 87.9631 134.25 85.568 135.896C85.5482 135.907 85.5336 135.925 85.5274 135.947C85.5212 135.969 85.524 135.992 85.5351 136.012C85.5462 136.032 85.5647 136.047 85.5866 136.053C85.6085 136.059 85.6319 136.056 85.6517 136.045C88.2111 134.694 90.8304 133.378 93.3061 131.889C93.5034 131.775 93.336 131.506 93.1327 131.596Z" fill="#37474F"/>
<path d="M89.7479 131.153C89.5819 131.666 89.452 132.189 89.3591 132.72C89.2422 133.132 89.2076 133.563 89.2575 133.988C89.2575 134.066 89.3831 134.066 89.4249 133.988C89.6331 133.59 89.7803 133.162 89.8615 132.72C89.999 132.236 90.1425 131.751 90.2681 131.261C90.3459 130.962 89.8555 130.836 89.7479 131.153Z" fill="#37474F"/>
<path d="M89.5565 128.57C89.6402 128.127 89.7179 127.685 89.8076 127.242C89.8973 126.8 90.0229 126.327 90.0767 125.867C90.0767 125.795 90.2023 125.813 90.1904 125.867C90.1126 126.31 90.0947 126.77 90.0528 127.219C90.011 127.667 89.9571 128.121 89.9033 128.57C89.8017 129.407 89.6462 130.25 89.4608 131.076C89.9025 131.008 90.3234 130.843 90.6927 130.591C91.0487 130.249 91.2873 129.803 91.3744 129.317C91.5179 128.815 91.6375 128.301 91.781 127.799C91.9722 127.246 92.1143 126.678 92.2056 126.1C92.2056 126.028 92.3252 126.052 92.3192 126.1C92.1903 127.318 91.9399 128.52 91.5717 129.688C91.4954 130.157 91.251 130.582 90.884 130.884C90.4181 131.125 89.9067 131.266 89.3831 131.297C89.3233 131.327 89.2336 131.297 89.2395 131.225C89.3113 130.364 89.401 129.455 89.5565 128.57Z" fill="#37474F"/>
<path d="M67.7115 143.054C67.556 141.092 67.275 139.143 67.1135 137.187C66.7867 133.26 67.0998 129.305 68.0404 125.478C68.0414 125.464 68.0375 125.451 68.0294 125.439C68.0212 125.428 68.0094 125.42 67.996 125.416C67.9825 125.413 67.9682 125.414 67.9556 125.42C67.943 125.426 67.9328 125.436 67.9268 125.448C67.2152 128.839 66.5873 132.236 66.6949 135.716C66.8026 139.196 67.3467 142.587 67.3348 146.05C67.3228 149.512 66.9879 153.052 66.7009 156.538L65.8278 167.075C64.6318 181.188 63.5554 209.025 62.4312 223.144C62.1202 227.087 61.8172 231.027 61.5222 234.966C61.2172 238.979 60.7508 248.87 60.5295 252.906C60.5295 253.253 61.0259 253.235 61.0618 252.906C61.7973 245.832 62.3833 232.837 62.9694 225.745C63.5554 218.653 64.0876 211.698 64.6438 204.677C65.1999 197.657 65.7561 176.912 66.3062 169.886C66.5813 166.374 66.8484 162.863 67.1075 159.355C67.3766 155.857 67.7055 152.358 67.8192 148.854C67.8889 146.92 67.8529 144.984 67.7115 143.054Z" fill="#37474F"/>
<path d="M77.4709 125.407C77.466 125.396 77.4583 125.388 77.4488 125.382C77.4393 125.376 77.4283 125.373 77.4171 125.373C77.4058 125.373 77.3948 125.376 77.3853 125.382C77.3758 125.388 77.3681 125.396 77.3632 125.407C77.1951 125.865 77.1022 126.348 77.0882 126.836C76.999 127.36 76.867 127.876 76.6935 128.379C76.3833 129.394 75.8145 130.311 75.043 131.04C73.3387 132.577 71.0842 133.115 68.9135 133.605C68.8298 133.605 68.8597 133.731 68.9135 133.737C70.1953 133.816 71.48 133.639 72.6929 133.216C73.7754 132.906 74.7801 132.37 75.641 131.644C76.4568 130.89 77.0223 129.905 77.2616 128.821C77.3873 128.255 77.4594 127.678 77.4769 127.099C77.4769 126.824 77.4769 126.543 77.4769 126.268C77.5305 125.983 77.5285 125.691 77.4709 125.407Z" fill="#37474F"/>
<path d="M82.3208 51.0513C84.659 49.2991 90.4835 48.426 94.1971 52.313C99.7466 58.1316 96.8164 76.9746 95.4469 79.5938C95.4469 79.5938 82.584 82.1891 71.8977 75.8264C71.8977 75.8264 78.374 63.376 79.5401 57.103C80.2338 53.3536 80.9873 52.026 82.3208 51.0513Z" fill="#263238"/>
<path d="M78.1887 62.0604C78.1349 62.18 78.087 62.2937 78.0332 62.4073C77.3331 63.8609 76.5024 65.248 75.5515 66.5514C74.6801 67.821 73.6309 68.9589 72.4359 69.9301C72.4359 69.9301 72.3582 69.9301 72.3941 69.8823C73.5668 68.8331 74.5624 67.6013 75.3422 66.2345C76.1601 64.9315 76.9009 63.5817 77.5608 62.192C78.9195 59.3789 79.9238 56.4081 80.5508 53.3476C80.5508 53.2878 80.6644 53.3057 80.6584 53.3476C80.6046 53.7781 80.5448 54.2087 80.473 54.6333C80.4817 54.6321 80.4906 54.633 80.4988 54.636C80.507 54.6389 80.5144 54.6439 80.5203 54.6504C80.5262 54.6569 80.5304 54.6647 80.5326 54.6732C80.5348 54.6816 80.5349 54.6905 80.5328 54.6991C80.0938 57.5565 79.3644 60.3616 78.3561 63.0711C77.269 65.7507 75.8247 68.2712 74.0625 70.564C73.0972 71.8481 72.0548 73.0722 70.9409 74.2297C74.0372 70.6192 76.4889 66.5027 78.1887 62.0604Z" fill="#263238"/>
<path d="M92.6064 51.5237C98.4189 56.1402 99.31 63.9262 98.4429 70.6597C97.987 73.3518 97.3314 76.0063 96.4814 78.6011C96.4814 78.637 96.4097 78.6011 96.4216 78.6011C97.2947 75.0789 98.3292 69.6909 98.1678 66.0431C98.0183 62.6644 97.5339 59.1362 95.9911 56.0446C95.1799 54.3458 94.0061 52.8455 92.5526 51.6493C92.4987 51.5655 92.5526 51.4758 92.6064 51.5237Z" fill="#263238"/>
<path d="M90.1605 80.73C91.2189 84.7187 99.4713 103.538 107.455 106.857C112.239 108.854 128.893 99.1963 131.626 96.4694C132.882 95.2136 125.257 82.9426 123.529 83.732C121.555 84.6349 110.522 92.3312 109.727 92.104C108.364 91.6913 99.9736 81.6091 93.9458 77.4111C90.3757 74.8875 89.413 77.9015 90.1605 80.73Z" fill="#EB9481"/>
<path d="M126.298 98.975C127.494 98.7657 132.278 97.9943 135.657 94.2209C136.015 91.1113 137.187 84.5751 137.558 82.9605C137.672 81.0888 138.371 78.344 138.551 78.3858C138.886 78.4696 140.07 78.7446 141.541 78.9838C143.478 79.2769 145.9 79.4802 147.521 79.0137C147.904 78.9493 148.263 78.7809 148.557 78.5267C148.851 78.2726 149.07 77.9425 149.189 77.5726C149.5 76.251 146.636 75.4437 143.323 74.1819C138.814 72.4656 133.653 70.1334 131.363 71.3892C128.008 73.249 126.292 78.2483 125.383 79.7612C124.079 81.914 122.016 84.6469 122.016 84.6469C122.381 93.9518 125.479 99.1245 126.298 98.975Z" fill="#EB9481"/>
<path d="M152.275 80.5506C152.275 80.5506 146.295 79.4084 140.207 77.9613C134.12 76.5141 120.342 76.0716 120.031 76.4902C119.72 76.9088 133.354 80.132 139.531 80.8257C145.709 81.5194 151.964 81.8363 151.964 81.8363L152.275 80.5506Z" fill="black"/>
<path d="M152.418 80.5028L148.352 79.534L148.047 81.7765L152.155 82.0157L152.418 80.5028Z" fill="#DBDBDB"/>
<path d="M152.418 80.5028C152.899 80.2996 153.42 80.2137 153.94 80.2521C154.46 80.2906 154.963 80.4524 155.408 80.724C155.773 80.963 156.184 81.1241 156.614 81.1971C157.044 81.2702 157.485 81.2537 157.908 81.1486C157.908 81.1486 155.008 83.9293 152.143 82.0157L152.418 80.5028Z" fill="#263238"/>
<path d="M158.075 81.1067C157.86 81.0051 156.879 81.3639 156.072 80.9812C155.265 80.5984 154.326 82.9785 155.474 82.6735C156.772 82.3267 158.47 81.328 158.075 81.1067Z" fill="#455A64"/>
<path d="M133.641 95.8116C134.837 95.088 142.3 88.5877 143.137 86.5067C143.975 84.4256 149.805 81.1247 146.325 79.8808C142.844 78.637 138.419 84.5333 137.708 83.8516C137.554 83.5817 137.501 83.2659 137.558 82.9605C137.187 84.5751 134 92.69 133.641 95.8116Z" fill="#EB9481"/>
<path d="M99.5911 101.726L105.894 87.0329C105.894 87.0329 100.016 80.9871 94.1433 76.9865C88.271 72.9859 87.7686 79.0915 92.0264 87.7146C96.2842 96.3378 99.5911 101.726 99.5911 101.726Z" fill="black"/>
<path d="M97.8149 97.6414C99.0408 94.4122 100.5 91.2668 102.001 88.1512C102.427 87.2701 102.876 86.401 103.346 85.5439C103.346 85.5439 103.4 85.5439 103.388 85.5439C102.736 87.1465 102.025 88.7193 101.319 90.3279C100.614 91.9365 99.8959 93.4853 99.1424 95.0461C98.7179 95.9312 98.2993 96.8401 97.8567 97.6833C97.8567 97.7012 97.7969 97.6833 97.8149 97.6414Z" fill="#263238"/>
<path opacity="0.1" d="M104.256 90.8601L99.5911 101.732C99.5911 101.732 96.2782 96.3498 92.0264 87.7206C89.7122 83.0263 88.8032 79.0795 89.4012 77.0942C92.9055 81.1486 100.141 87.308 104.256 90.8601Z" fill="black"/>
<path d="M63.1429 125.963C63.2326 126.07 103.705 125.753 104.07 125.365C104.578 124.767 94.9625 81.029 90.7525 75.653C89.8496 74.5048 86.9134 74.2178 84.4257 74.5527C83.7772 74.6353 83.137 74.7734 82.5121 74.9653H82.4463C81.9443 75.122 81.4715 75.3604 81.047 75.6709C74.176 81.2802 68.5488 100.691 67.2511 106.516C65.0983 116.096 62.7901 125.58 63.1429 125.963Z" fill="black"/>
<path d="M81.1607 80.7659C79.2112 86.4768 67.2871 107.532 67.2213 108.663C67.2213 108.663 53.9337 114.971 52.9769 107.592C52.0201 100.213 67.1436 85.6515 74.7023 79.8868C78.5235 76.9746 82.7573 76.1075 81.1607 80.7659Z" fill="#EB9481"/>
<path d="M59.8 92.5644L75.653 94.6754C75.653 94.6754 79.8869 87.3798 82.1593 80.6463C84.4317 73.9128 78.4098 75.0789 71.2517 81.5014C64.0937 87.9239 59.8 92.5644 59.8 92.5644Z" fill="black"/>
<path d="M73.8233 94.3883L75.6173 94.5199C75.6891 94.3225 77.1302 91.2189 77.489 90.5492C78.2126 89.1917 79.0139 87.8641 79.7973 86.5366C79.7997 86.5323 79.8029 86.5285 79.8067 86.5254C79.8105 86.5223 79.8149 86.52 79.8196 86.5186C79.8244 86.5172 79.8293 86.5167 79.8342 86.5173C79.8391 86.5178 79.8438 86.5193 79.8482 86.5216C79.8525 86.524 79.8563 86.5272 79.8594 86.531C79.8625 86.5348 79.8648 86.5392 79.8662 86.544C79.8675 86.5487 79.868 86.5536 79.8675 86.5585C79.8669 86.5634 79.8655 86.5681 79.8631 86.5725C79.307 87.7326 78.7688 88.9047 78.1947 90.0648C78.3382 89.9093 78.4757 89.7538 78.6073 89.5924C78.8824 89.2694 79.1335 88.9226 79.3907 88.5877C79.3907 88.5877 79.4624 88.5877 79.4445 88.6236C79.1927 89.1067 78.8791 89.5549 78.5116 89.9571C78.3547 90.131 78.1869 90.2948 78.0093 90.4475L77.8658 90.7345C77.5189 91.4103 75.7788 94.7411 75.719 94.7292C75.6592 94.7172 73.9668 94.5259 73.7874 94.496C73.7755 94.484 73.7814 94.3823 73.8233 94.3883Z" fill="#263238"/>
<path d="M62.8379 89.9392C66.2824 90.2502 69.7029 90.8063 73.1115 91.4282C74.0743 91.6016 75.0311 91.799 75.9879 92.0262C75.9879 92.0262 75.9879 92.0741 75.9879 92.0681C74.2716 91.8767 72.5673 91.6136 70.8571 91.3624C69.1468 91.1113 67.4305 90.8422 65.7262 90.5372C64.7634 90.3698 63.8007 90.1963 62.8379 90.011C62.79 89.993 62.79 89.9332 62.8379 89.9392Z" fill="#263238"/>
<path d="M79.0855 76.251C79.0855 76.251 79.4861 94.6215 79.1513 96.29C77.3274 105.403 75.8563 115.833 75.8563 116.55C75.8563 116.903 63.2983 120.365 63.2983 120.365L63.083 121.944L70.259 122.375C70.259 122.375 68.0344 154.768 66.4198 165.365C66.0132 168.008 63.083 184.86 63.083 184.86C63.083 184.86 75.1746 190.433 88.3126 190.003C93.5451 189.829 116.161 183.747 116.161 183.747C116.161 183.747 117.447 169.425 114.367 156.784C109.99 138.784 103.107 118.129 101.265 106.845C99.4713 95.68 93.0069 75.946 93.0069 75.946L90.896 75.043L94.1312 88.3366C90.6409 88.7489 87.1166 88.787 83.6183 88.4502L81.5074 75.348L79.0855 76.251Z" fill="#455A64"/>
<path d="M79.7972 138.987C79.7972 138.987 80.2038 144.465 80.8736 150.116C81.5433 155.767 80.5028 168.182 80.0902 168.415C79.6776 168.648 78.2125 156.036 78.2244 150.427C78.2364 144.818 78.6072 139.137 78.6072 139.137L79.7972 138.987Z" fill="#37474F"/>
<path d="M79.8511 138.868L80.2996 142.623L78.2544 142.665L78.4637 138.945L79.8511 138.868Z" fill="#DBDBDB"/>
<path d="M79.8511 138.868C80.086 138.455 80.2194 137.993 80.2402 137.519C80.261 137.044 80.1686 136.572 79.9707 136.141C79.7935 135.789 79.691 135.405 79.6694 135.012C79.6478 134.619 79.7076 134.225 79.8451 133.856C79.8451 133.856 77.0405 136.171 78.4637 138.945L79.8511 138.868Z" fill="black"/>
<g opacity="0.2">
<path d="M79.8511 138.868C80.086 138.455 80.2194 137.993 80.2402 137.519C80.261 137.044 80.1686 136.572 79.9707 136.141C79.7935 135.789 79.691 135.405 79.6694 135.012C79.6478 134.619 79.7076 134.225 79.8451 133.856C79.8451 133.856 77.0405 136.171 78.4637 138.945L79.8511 138.868Z" fill="black"/>
</g>
<path d="M88.7135 144.118C88.7135 144.118 86.3215 147.951 83.6424 151.802C80.9634 155.653 76.9389 165.078 77.1422 165.407C77.3455 165.736 83.2836 157.13 85.4424 153.04C87.6012 148.95 89.5208 144.668 89.5208 144.668L88.7135 144.118Z" fill="#A6A6A6"/>
<path d="M88.7254 144.004L86.9434 146.564L88.4204 147.389L89.7001 144.596L88.7254 144.004Z" fill="#DBDBDB"/>
<path d="M88.7253 144.004C89.4011 141.72 91.6615 140.243 91.6615 140.243C91.6615 140.243 91.811 143.131 89.7001 144.596L88.7253 144.004Z" fill="black"/>
<g opacity="0.2">
<path d="M88.7253 144.004C89.4011 141.72 91.6615 140.243 91.6615 140.243C91.6615 140.243 91.811 143.131 89.7001 144.596L88.7253 144.004Z" fill="black"/>
</g>
<path d="M72.992 150.756L89.5207 150.552C89.5207 150.552 90.4775 166.148 90.334 166.471C90.1905 166.794 83.0623 170.448 81.2324 170.005C79.4025 169.563 73.4225 167.356 73.0817 166.417C72.7408 165.479 72.992 150.756 72.992 150.756Z" fill="#37474F"/>
<path d="M83.6484 90.4714C83.6484 90.6831 83.5856 90.8901 83.468 91.0661C83.3504 91.2421 83.1832 91.3793 82.9876 91.4604C82.792 91.5414 82.5768 91.5626 82.3692 91.5213C82.1615 91.48 81.9708 91.378 81.8211 91.2283C81.6714 91.0786 81.5694 90.8879 81.5281 90.6802C81.4868 90.4726 81.508 90.2574 81.589 90.0618C81.6701 89.8662 81.8073 89.699 81.9833 89.5814C82.1593 89.4638 82.3663 89.401 82.578 89.401C82.8619 89.401 83.1342 89.5138 83.3349 89.7145C83.5356 89.9153 83.6484 90.1875 83.6484 90.4714Z" fill="black"/>
<path d="M96.2781 89.4369C96.2684 89.5965 96.2142 89.7503 96.1215 89.8807C96.0289 90.0111 95.9015 90.1129 95.7539 90.1745C95.6062 90.2361 95.4443 90.2551 95.2864 90.2292C95.1286 90.2034 94.9811 90.1338 94.8608 90.0284C94.7405 89.923 94.6522 89.7859 94.6059 89.6328C94.5596 89.4797 94.5572 89.3166 94.5989 89.1622C94.6407 89.0078 94.7249 88.8682 94.842 88.7592C94.9591 88.6503 95.1044 88.5764 95.2615 88.5459C95.7159 88.4562 96.1704 88.8508 96.2781 89.4369Z" fill="black"/>
<path d="M89.8257 81.2204C87.619 81.8782 83.5885 78.6908 81.9081 76.0118C81.7945 75.8264 81.9679 73.8111 82.0636 71.3534C82.1174 69.8584 82.1354 68.1959 82.0636 66.677C82.0636 66.366 91.7333 68.4291 91.7333 68.4291C91.293 70.3606 91.0922 72.3389 91.1353 74.3194C91.1539 74.5211 91.1879 74.721 91.2369 74.9174C91.2389 74.9513 91.2389 74.9852 91.2369 75.0191C91.524 76.2151 91.9545 80.5805 89.8257 81.2204Z" fill="#EB9481"/>
<path d="M82.6377 66.683C83.2357 69.2245 85.1912 75.336 90.2861 75.1507C90.6115 75.1418 90.9355 75.1058 91.2549 75.043C91.2588 75.0092 91.2588 74.9751 91.2549 74.9414C91.2058 74.7449 91.1718 74.545 91.1532 74.3434C91.1101 72.3628 91.311 70.3845 91.7512 68.4531C91.7512 68.4531 84.7247 66.9341 82.6377 66.683Z" fill="#263238"/>
<path d="M81.4896 54.4718C80.192 57.7668 81.2026 67.6278 83.4331 70.0198C86.6623 73.4464 92.3314 74.2058 95.3453 70.2291C98.2575 66.378 96.7147 53.515 94.1911 51.3263C90.4716 48.1031 83.4032 49.634 81.4896 54.4718Z" fill="#EB9481"/>
<path d="M90.2024 61.3967C90.2024 61.3967 90.1486 61.4385 90.1545 61.4624C90.2383 62.1262 90.2263 62.9036 89.6462 63.1847C89.6462 63.1847 89.6462 63.2265 89.6462 63.2206C90.3818 63.0471 90.3878 62.0126 90.2024 61.3967Z" fill="#263238"/>
<path d="M89.5386 60.7628C88.4562 60.7628 88.5818 62.9395 89.5804 62.9216C90.5791 62.9036 90.4415 60.7448 89.5386 60.7628Z" fill="#263238"/>
<path d="M94.0776 61.1096C94.0776 61.1096 94.1314 61.1096 94.1314 61.1634C94.1314 61.8332 94.2809 62.5986 94.8968 62.784V62.8259C94.1493 62.79 93.9879 61.7495 94.0776 61.1096Z" fill="#263238"/>
<path d="M94.6335 60.398C95.7039 60.2545 95.9132 62.4073 94.9206 62.5388C93.9279 62.6704 93.7365 60.4997 94.6335 60.398Z" fill="#263238"/>
<path d="M88.7554 60.1588C89.0515 60.1877 89.3489 60.2016 89.6464 60.2007C89.955 60.2594 90.2743 60.2153 90.5553 60.0751C90.6353 60.0124 90.6925 59.9253 90.7184 59.8271C90.7443 59.7289 90.7375 59.6249 90.6989 59.5309C90.5936 59.358 90.4436 59.2167 90.2646 59.1219C90.0857 59.0272 89.8845 58.9826 89.6823 58.9927C89.2711 58.947 88.8577 59.0557 88.5222 59.2977C88.4498 59.3577 88.3963 59.4373 88.3679 59.5269C88.3395 59.6166 88.3374 59.7124 88.362 59.8032C88.3866 59.8939 88.4367 59.9757 88.5065 60.0388C88.5762 60.1018 88.6626 60.1435 88.7554 60.1588Z" fill="#263238"/>
<path d="M95.5366 58.4007C95.2419 58.4186 94.9463 58.4186 94.6516 58.4007C94.3391 58.448 94.0197 58.3913 93.7426 58.2392C93.6655 58.1731 93.6121 58.0835 93.5905 57.9842C93.5689 57.8849 93.5803 57.7813 93.623 57.6891C93.7364 57.5224 93.8918 57.3887 94.0735 57.3016C94.2552 57.2144 94.4567 57.1768 94.6576 57.1927C95.0701 57.1614 95.4795 57.2851 95.8058 57.5396C95.8818 57.6005 95.9376 57.683 95.9661 57.7762C95.9945 57.8694 95.9942 57.969 95.9651 58.062C95.936 58.155 95.8796 58.237 95.8032 58.2975C95.7267 58.3579 95.6338 58.3939 95.5366 58.4007Z" fill="#263238"/>
<path d="M89.7839 67.574C89.9513 67.7235 90.1247 67.9328 90.3819 67.9388C90.629 67.9185 90.8693 67.8473 91.0875 67.7295C91.0875 67.7295 91.1354 67.7295 91.1234 67.7295C91.0394 67.8716 90.9181 67.9881 90.7726 68.0661C90.6271 68.1441 90.463 68.1807 90.2982 68.172C90.1603 68.1438 90.0338 68.0754 89.9348 67.9753C89.8358 67.8752 89.7687 67.7481 89.742 67.6099C89.7002 67.574 89.76 67.574 89.7839 67.574Z" fill="#263238"/>
<path d="M90.3699 65.5408C90.5554 65.7953 90.7913 66.0089 91.0629 66.1684C91.3345 66.3278 91.636 66.4297 91.9486 66.4677C92.2203 66.5065 92.4962 66.5065 92.7679 66.4677C92.8195 66.4739 92.8717 66.4739 92.9234 66.4677C92.9731 66.4728 93.0232 66.4728 93.0729 66.4677C93.1073 66.4579 93.1378 66.4377 93.1603 66.4099C93.1828 66.382 93.1961 66.3479 93.1985 66.3122C93.2014 66.2904 93.2014 66.2683 93.1985 66.2464V66.1866C93.1985 65.6724 93.0848 64.889 93.0848 64.889C93.2822 64.9727 94.2808 65.3494 94.233 65.0803C94.0388 62.7645 93.61 60.4744 92.9533 58.2452C92.9491 58.2318 92.9407 58.2201 92.9294 58.2118C92.9182 58.2035 92.9045 58.199 92.8905 58.199C92.8765 58.199 92.8628 58.2035 92.8515 58.2118C92.8402 58.2201 92.8319 58.2318 92.8277 58.2452C92.9951 60.386 93.5393 62.485 93.7426 64.6318C93.3914 64.4953 93.0233 64.4068 92.6483 64.3687C92.5765 64.3687 92.8636 65.8757 92.8516 66.1089C92.4332 66.1744 92.0058 66.1553 91.595 66.0525C91.1841 65.9498 90.798 65.7656 90.4596 65.5109C90.3759 65.4391 90.328 65.487 90.3699 65.5408Z" fill="#263238"/>
<path d="M92.4568 66.2524C92.1794 66.6232 91.8106 66.9158 91.3864 67.1016C91.1519 67.1998 90.8921 67.2208 90.6449 67.1614C90.1067 67.0298 90.0888 66.5634 90.1785 66.1149C90.2311 65.8914 90.3094 65.6746 90.4117 65.469C90.9915 65.9431 91.7087 66.2178 92.4568 66.2524Z" fill="#263238"/>
<path d="M89.4489 68.172C89.6139 68.3527 89.823 68.4874 90.0558 68.5629C90.2885 68.6383 90.5369 68.652 90.7765 68.6026C90.7537 68.8153 90.6891 69.0215 90.5865 69.2093C90.4839 69.3971 90.3453 69.5628 90.1785 69.6969L90.3041 69.2783C90.0918 69.7167 89.7731 70.0949 89.3772 70.3786C89.2654 70.0721 89.2447 69.7398 89.3174 69.4218L89.1619 69.9241C89.0745 69.6293 89.055 69.3186 89.1047 69.0152C89.1544 68.7118 89.2721 68.4235 89.4489 68.172Z" fill="#263238"/>
<path d="M82.4404 63.0232C83.0384 62.6046 84.1447 59.4711 84.1447 59.4711C84.1447 59.4711 90.5373 57.8685 91.9785 52.4566C91.9785 52.4566 93.9878 56.3017 96.4516 57.3542C96.4516 57.3542 96.7984 51.3323 92.1938 50.0586C92.1938 50.0586 87.6012 47.3257 82.6258 51.6253C77.6504 55.925 80.8737 62.9395 80.8737 62.9395L82.4404 63.0232Z" fill="#263238"/>
<path d="M91.9604 51.3921C92.0334 52.339 91.8474 53.2878 91.4222 54.1369C91.0454 55.0014 90.5459 55.807 89.9392 56.5289C89.3423 57.2739 88.6296 57.918 87.8282 58.4366C86.8712 58.9572 85.841 59.3302 84.7725 59.5429C84.7725 59.5429 84.7725 59.6086 84.7725 59.6027C85.8854 59.412 86.9676 59.072 87.9897 58.592C88.8592 58.0954 89.6394 57.4567 90.298 56.7024C90.9987 55.985 91.5389 55.1268 91.8827 54.1848C92.1582 53.2762 92.2176 52.3158 92.0561 51.3802C92.092 51.3144 91.9485 51.3204 91.9604 51.3921Z" fill="#263238"/>
<path d="M82.9428 62.5807C82.9428 62.5807 80.9216 59.2977 79.4445 59.9973C77.9674 60.697 79.3548 65.3793 80.9993 66.1029C81.204 66.2104 81.4283 66.2753 81.6588 66.2936C81.8893 66.3119 82.1211 66.2833 82.3402 66.2095C82.5593 66.1358 82.7612 66.0183 82.9336 65.8643C83.106 65.7103 83.2455 65.523 83.3434 65.3136L82.9428 62.5807Z" fill="#EB9481"/>
<path d="M79.8751 61.3309C79.8751 61.3309 79.8392 61.3309 79.8751 61.3727C81.0292 61.9169 81.5853 63.0471 81.9501 64.2073C81.8885 64.0857 81.8014 63.9789 81.6947 63.8942C81.588 63.8095 81.4642 63.7489 81.3318 63.7165C81.1995 63.6841 81.0617 63.6808 80.9279 63.7066C80.7941 63.7325 80.6675 63.787 80.5568 63.8664C80.5504 63.8692 80.5449 63.8738 80.5411 63.8796C80.5373 63.8855 80.5353 63.8923 80.5353 63.8993C80.5353 63.9063 80.5373 63.9131 80.5411 63.9189C80.5449 63.9248 80.5504 63.9294 80.5568 63.9322C80.7681 63.8792 80.9906 63.8927 81.1939 63.9708C81.3973 64.0489 81.5715 64.1879 81.693 64.3687C81.8944 64.6728 82.0628 64.9976 82.1953 65.3375C82.2432 65.4451 82.4345 65.4033 82.4046 65.2777C82.5242 63.7468 81.4837 61.594 79.8751 61.3309Z" fill="#263238"/>
<path d="M82.3267 51.8227C83.1639 51.5057 83.9652 46.8055 80.8735 44.563C77.7819 42.3205 73.8171 44.8799 75.4915 48.749C76.544 51.1709 80.5446 52.4865 82.3267 51.8227Z" fill="#263238"/>
<path d="M76.5441 44.2879C75.6233 45.0514 74.9905 46.1061 74.7501 47.2779C74.6269 47.8212 74.6488 48.3873 74.8136 48.9195C74.9784 49.4517 75.2803 49.9311 75.689 50.3097C76.5572 51.0815 77.6202 51.6006 78.7627 51.8107C79.3426 51.9388 79.9332 52.0129 80.5268 52.032C81.1318 52.0754 81.7397 52.0086 82.3208 51.8346C81.768 52.1381 81.1559 52.3176 80.5268 52.3609C79.9038 52.4227 79.2758 52.4126 78.6551 52.331C77.3758 52.1864 76.1726 51.6496 75.2106 50.7941C74.7247 50.3348 74.3733 49.7518 74.194 49.1078C74.0321 48.4663 74.0445 47.7933 74.2299 47.1583C74.3977 46.5465 74.6898 45.9759 75.088 45.482C75.4862 44.9881 75.9818 44.5816 76.5441 44.2879Z" fill="#263238"/>
<path d="M81.4836 104.8C83.4151 105.398 81.5314 121.585 78.5833 121.125C66.4319 119.235 56.9835 113.482 54.8905 111.174C52.2474 108.262 52.4567 105.374 54.0952 103.645C56.4633 101.134 79.57 104.184 81.4836 104.8Z" fill="#EB9481"/>
<path d="M69.7627 103.065C67.3491 102.61 64.8866 102.472 62.4372 102.653C62.3833 102.653 62.3774 102.742 62.4372 102.742C66.2943 102.91 68.5487 103.197 69.7806 103.287C70.1573 103.31 70.4862 103.239 69.7627 103.065Z" fill="#263238"/>
<path d="M76.0059 120.473C81.7885 122.411 88.8748 125.167 95.6023 123.738C96.3545 123.599 97.0373 123.209 97.5398 122.632C100.566 122.034 101.2 120.437 101.2 120.437C103.849 119.026 104.273 117.298 104.273 117.298C104.273 117.298 107.819 116.568 107.736 114.35C107.646 111.862 102.683 113.375 99.4475 112.556C92.0263 110.63 80.9095 105.535 78.8464 104.782L76.0059 120.473Z" fill="#EB9481"/>
<path d="M90.2981 115.976C92.4591 116.56 94.6566 117 96.8761 117.292C99.328 117.451 101.788 117.431 104.237 117.232C104.253 117.232 104.269 117.238 104.28 117.249C104.291 117.261 104.297 117.276 104.297 117.292C104.297 117.308 104.291 117.323 104.28 117.334C104.269 117.345 104.253 117.352 104.237 117.352C99.5439 118.215 94.7033 117.772 90.2443 116.072C90.1426 116.012 90.1605 115.946 90.2981 115.976Z" fill="#263238"/>
<path d="M88.4564 120.282C90.6211 120.67 94.4364 121.334 101.2 120.359C101.2 120.359 101.236 120.359 101.2 120.395C97.0247 121.582 92.6015 121.582 88.4265 120.395C88.3069 120.353 88.3128 120.258 88.4564 120.282Z" fill="#263238"/>
<path d="M87.5295 122.62C91.2311 123.14 93.635 123.003 97.534 122.62C97.534 122.62 97.5699 122.656 97.534 122.662C93.1447 123.571 91.4464 123.403 87.4816 122.751C87.356 122.722 87.38 122.59 87.5295 122.62Z" fill="#263238"/>
<path d="M92.4509 108.059C101.822 105.356 128.773 106.928 128.893 113.369C129.037 121.041 87.4158 120.718 87.4038 115.528C87.4038 112.639 97.0077 113.058 96.9718 111.372C96.9539 110.086 89.138 109.015 92.4509 108.059Z" fill="black"/>
<path opacity="0.3" d="M92.4509 108.059C101.822 105.356 128.773 106.928 128.893 113.369C129.037 121.041 87.4158 120.718 87.4038 115.528C87.4038 112.639 97.0077 113.058 96.9718 111.372C96.9539 110.086 89.138 109.015 92.4509 108.059Z" fill="black"/>
<path d="M92.4509 107.383C101.822 104.68 128.773 106.253 128.893 112.693C129.037 120.365 87.4158 120.043 87.4038 114.852C87.4038 111.964 97.0077 112.382 96.9718 110.702C96.9539 109.434 89.138 108.34 92.4509 107.383Z" fill="black"/>
<path opacity="0.2" d="M92.4509 107.383C101.822 104.68 128.773 106.253 128.893 112.693C129.037 120.365 87.4158 120.043 87.4038 114.852C87.4038 111.964 97.0077 112.382 96.9718 110.702C96.9539 109.434 89.138 108.34 92.4509 107.383Z" fill="black"/>
<path d="M107.969 115.94L107.796 115.868C107.606 115.808 107.427 115.719 107.263 115.605C107.099 115.493 106.965 115.34 106.875 115.163C106.801 115.054 106.765 114.923 106.773 114.792C106.777 114.606 106.835 114.424 106.942 114.271C107.048 114.118 107.197 113.999 107.371 113.931C107.928 113.734 108.514 113.629 109.105 113.62C109.954 113.488 110.558 112.98 111.443 113.052C112.418 113.136 113.56 113.65 113.758 114.535C114.278 116.879 109.279 116.419 107.969 115.94Z" fill="#263238"/>
<path d="M101.134 109.434C101.463 110.307 102.42 110.301 103.209 110.271C103.998 110.241 104.782 110.223 105.565 110.187C106.075 110.242 106.588 110.13 107.03 109.871L107.096 109.793C107.233 109.717 107.341 109.598 107.403 109.454C107.464 109.31 107.476 109.149 107.437 108.997C107.323 108.304 106.612 108.118 105.96 107.987C105.729 107.916 105.493 107.864 105.254 107.831C104.19 107.544 102.988 107.024 101.923 107.586C101.592 107.748 101.33 108.024 101.185 108.363C101.04 108.702 101.022 109.083 101.134 109.434Z" fill="#C7C7C7"/>
<path d="M111.264 108.286C110.301 109.482 112.095 110.385 113.058 110.486C114.021 110.588 116.712 110.738 116.574 109.29C116.502 108.411 115.563 108.124 114.66 108.094C113.476 107.676 111.916 107.473 111.264 108.286Z" fill="black"/>
<path d="M124.061 111.156C125.191 112.472 123.667 113.937 122.375 114.182C121.357 114.331 120.325 114.357 119.301 114.26C118.974 114.282 118.648 114.195 118.375 114.012C118.102 113.829 117.898 113.561 117.794 113.249C117.501 111.856 118.871 111.318 120.144 111.114C121.502 110.504 123.188 110.104 124.061 111.156Z" fill="#EBEBEB"/>
<path d="M90.6508 109.655C89.7837 109.021 90.1126 108.561 92.0203 108.495C93.9279 108.429 101.534 109.775 101.78 107.084C102.025 104.393 91.2847 103.161 88.1034 102.994C84.7547 102.873 81.4234 103.526 78.3679 104.901C80.3892 105.661 86.71 108.112 90.6508 109.655Z" fill="#EB9481"/>
</svg>
