<svg width="32" height="32" viewBox="0 0 32 32" fill="none" xmlns="http://www.w3.org/2000/svg">
<path fill-rule="evenodd" clip-rule="evenodd" d="M29.3334 16C29.3334 23.3638 23.3638 29.3333 16 29.3333C8.63622 29.3333 2.66669 23.3638 2.66669 16C2.66669 8.63619 8.63622 2.66666 16 2.66666C23.3638 2.66666 29.3334 8.63619 29.3334 16ZM11.9595 11.9595C12.35 11.569 12.9832 11.569 13.3737 11.9595L16 14.5858L18.6262 11.9595C19.0167 11.569 19.6499 11.569 20.0404 11.9595C20.4309 12.3501 20.4309 12.9832 20.0404 13.3738L17.4142 16L20.0404 18.6262C20.4309 19.0167 20.4309 19.6499 20.0404 20.0404C19.6499 20.4309 19.0167 20.4309 18.6262 20.0404L16 17.4142L13.3738 20.0404C12.9832 20.4309 12.3501 20.4309 11.9596 20.0404C11.569 19.6499 11.569 19.0167 11.9596 18.6262L14.5858 16L11.9595 13.3737C11.569 12.9832 11.569 12.35 11.9595 11.9595Z" fill="white"/>
</svg>
